<?xml version="1.0" encoding="UTF-8"?>
<svg viewBox="0 0 400 80" xmlns="http://www.w3.org/2000/svg">
  <defs>
    <!-- Silver gradient for realistic flute appearance -->
    <linearGradient id="fluteGradient" x1="0%" y1="0%" x2="0%" y2="100%">
      <stop offset="0%" style="stop-color:#f8fafc;stop-opacity:1" />
      <stop offset="30%" style="stop-color:#e2e8f0;stop-opacity:1" />
      <stop offset="70%" style="stop-color:#cbd5e1;stop-opacity:1" />
      <stop offset="100%" style="stop-color:#94a3b8;stop-opacity:1" />
    </linearGradient>
    <!-- Key gradient -->
    <radialGradient id="keyGradient" cx="50%" cy="30%" r="50%">
      <stop offset="0%" style="stop-color:#f8fafc;stop-opacity:1" />
      <stop offset="100%" style="stop-color:#cbd5e1;stop-opacity:1" />
    </radialGradient>
  </defs>
  
  <!-- Head joint -->
  <rect x="10" y="25" width="60" height="30" rx="15" fill="url(#fluteGradient)" stroke="#64748b" stroke-width="1.5"/>
  
  <!-- Embouchure hole -->
  <ellipse cx="40" cy="40" rx="8" ry="4" fill="#1e293b" stroke="#475569" stroke-width="1"/>
  
  <!-- Body joint with tone holes -->
  <rect x="70" y="27" width="200" height="26" rx="13" fill="url(#fluteGradient)" stroke="#64748b" stroke-width="1.5"/>
  
  <!-- Foot joint -->
  <rect x="270" y="28" width="70" height="24" rx="12" fill="url(#fluteGradient)" stroke="#64748b" stroke-width="1.5"/>
  
  <!-- Keys and tone holes -->
  <g id="keys">
    <!-- Left hand keys -->
    <circle cx="90" cy="35" r="6" fill="none" stroke="#64748b" stroke-width="1"/>
    <circle cx="90" cy="35" r="3" fill="#1e293b"/>
    
    <circle cx="110" cy="35" r="6" fill="none" stroke="#64748b" stroke-width="1"/>
    <circle cx="110" cy="35" r="3" fill="#1e293b"/>
    
    <circle cx="130" cy="35" r="6" fill="none" stroke="#64748b" stroke-width="1"/>
    <circle cx="130" cy="35" r="3" fill="#1e293b"/>
    
    <!-- Right hand keys -->
    <circle cx="170" cy="35" r="6" fill="none" stroke="#64748b" stroke-width="1"/>
    <circle cx="170" cy="35" r="3" fill="#1e293b"/>
    
    <circle cx="190" cy="35" r="6" fill="none" stroke="#64748b" stroke-width="1"/>
    <circle cx="190" cy="35" r="3" fill="#1e293b"/>
    
    <circle cx="210" cy="35" r="6" fill="none" stroke="#64748b" stroke-width="1"/>
    <circle cx="210" cy="35" r="3" fill="#1e293b"/>
    
    <!-- Foot joint keys -->
    <circle cx="280" cy="35" r="5" fill="none" stroke="#64748b" stroke-width="1"/>
    <circle cx="280" cy="35" r="2.5" fill="#1e293b"/>
    
    <circle cx="300" cy="35" r="5" fill="none" stroke="#64748b" stroke-width="1"/>
    <circle cx="300" cy="35" r="2.5" fill="#1e293b"/>
  </g>
  
  <!-- Key mechanisms (simplified) -->
  <g id="mechanisms">
    <rect x="87" y="20" width="6" height="8" rx="2" fill="#94a3b8" stroke="#64748b" stroke-width="0.5"/>
    <rect x="107" y="20" width="6" height="8" rx="2" fill="#94a3b8" stroke="#64748b" stroke-width="0.5"/>
    <rect x="127" y="20" width="6" height="8" rx="2" fill="#94a3b8" stroke="#64748b" stroke-width="0.5"/>
    <rect x="167" y="20" width="6" height="8" rx="2" fill="#94a3b8" stroke="#64748b" stroke-width="0.5"/>
    <rect x="187" y="20" width="6" height="8" rx="2" fill="#94a3b8" stroke="#64748b" stroke-width="0.5"/>
    <rect x="207" y="20" width="6" height="8" rx="2" fill="#94a3b8" stroke="#64748b" stroke-width="0.5"/>
  </g>
</svg>