<?xml version="1.0" encoding="UTF-8"?>
<svg viewBox="0 0 80 400" xmlns="http://www.w3.org/2000/svg">
  <defs>
    <!-- Reed/bamboo gradient for ney -->
    <linearGradient id="neyGradient" x1="0%" y1="0%" x2="0%" y2="100%">
      <stop offset="0%" style="stop-color:#fef3c7;stop-opacity:1" />
      <stop offset="30%" style="stop-color:#f59e0b;stop-opacity:1" />
      <stop offset="70%" style="stop-color:#d97706;stop-opacity:1" />
      <stop offset="100%" style="stop-color:#a16207;stop-opacity:1" />
    </linearGradient>
    <!-- Node gradient -->
    <linearGradient id="nodeGradient" x1="0%" y1="0%" x2="0%" y2="100%">
      <stop offset="0%" style="stop-color:#451a03;stop-opacity:1" />
      <stop offset="100%" style="stop-color:#78350f;stop-opacity:1" />
    </linearGradient>
  </defs>
  
  <!-- Main tube body -->
  <rect x="30" y="20" width="20" height="360" rx="10" fill="url(#neyGradient)" stroke="#78350f" stroke-width="2"/>
  
  <!-- Beveled mouthpiece -->
  <path d="M 30 20 Q 35 15 40 20 Q 45 15 50 20 L 50 30 L 30 30 Z" fill="url(#neyGradient)" stroke="#78350f" stroke-width="2"/>
  
  <!-- Bamboo nodes (characteristic rings) -->
  <g id="nodes">
    <rect x="28" y="80" width="24" height="4" rx="2" fill="url(#nodeGradient)"/>
    <rect x="28" y="140" width="24" height="4" rx="2" fill="url(#nodeGradient)"/>
    <rect x="28" y="200" width="24" height="4" rx="2" fill="url(#nodeGradient)"/>
    <rect x="28" y="260" width="24" height="4" rx="2" fill="url(#nodeGradient)"/>
    <rect x="28" y="320" width="24" height="4" rx="2" fill="url(#nodeGradient)"/>
  </g>
  
  <!-- Finger holes -->
  <g id="holes">
    <!-- Front holes (6 holes) -->
    <circle cx="40" cy="100" r="3" fill="#1c1917" stroke="#78350f" stroke-width="0.5"/>
    <circle cx="40" cy="125" r="3" fill="#1c1917" stroke="#78350f" stroke-width="0.5"/>
    <circle cx="40" cy="150" r="3" fill="#1c1917" stroke="#78350f" stroke-width="0.5"/>
    <circle cx="40" cy="175" r="3" fill="#1c1917" stroke="#78350f" stroke-width="0.5"/>
    <circle cx="40" cy="220" r="3" fill="#1c1917" stroke="#78350f" stroke-width="0.5"/>
    <circle cx="40" cy="245" r="3" fill="#1c1917" stroke="#78350f" stroke-width="0.5"/>
    
    <!-- Back hole (thumb hole) -->
    <circle cx="25" cy="135" r="2.5" fill="#1c1917" stroke="#78350f" stroke-width="0.5"/>
  </g>
  
  <!-- Decorative bindings (traditional ney feature) -->
  <g id="bindings">
    <rect x="32" y="95" width="16" height="1" fill="#451a03"/>
    <rect x="32" y="170" width="16" height="1" fill="#451a03"/>
    <rect x="32" y="240" width="16" height="1" fill="#451a03"/>
  </g>
</svg>