<?xml version="1.0" encoding="UTF-8"?>
<svg viewBox="0 0 80 320" xmlns="http://www.w3.org/2000/svg">
  <defs>
    <!-- Wood gradient for recorder -->
    <linearGradient id="recorderGradient" x1="0%" y1="0%" x2="0%" y2="100%">
      <stop offset="0%" style="stop-color:#fef3c7;stop-opacity:1" />
      <stop offset="20%" style="stop-color:#f59e0b;stop-opacity:1" />
      <stop offset="60%" style="stop-color:#d97706;stop-opacity:1" />
      <stop offset="100%" style="stop-color:#92400e;stop-opacity:1" />
    </linearGradient>
  </defs>
  
  <!-- Head joint with windway -->
  <rect x="25" y="10" width="30" height="40" rx="15" fill="url(#recorderGradient)" stroke="#78350f" stroke-width="2"/>
  
  <!-- Windway opening -->
  <rect x="35" y="45" width="10" height="6" rx="2" fill="#1c1917"/>
  
  <!-- Upper body section -->
  <rect x="28" y="50" width="24" height="120" rx="12" fill="url(#recorderGradient)" stroke="#78350f" stroke-width="1.5"/>
  
  <!-- Lower body section -->
  <rect x="28" y="170" width="24" height="120" rx="12" fill="url(#recorderGradient)" stroke="#78350f" stroke-width="1.5"/>
  
  <!-- Foot section -->
  <rect x="30" y="290" width="20" height="25" rx="10" fill="url(#recorderGradient)" stroke="#78350f" stroke-width="1.5"/>
  
  <!-- Tone holes -->
  <g id="holes">
    <!-- Back hole (thumb hole) -->
    <circle cx="25" cy="80" r="4" fill="#1c1917" stroke="#78350f" stroke-width="1"/>
    
    <!-- Front holes -->
    <circle cx="40" cy="90" r="4" fill="#1c1917" stroke="#78350f" stroke-width="1"/>
    <circle cx="40" cy="110" r="4" fill="#1c1917" stroke="#78350f" stroke-width="1"/>
    <circle cx="40" cy="130" r="4" fill="#1c1917" stroke="#78350f" stroke-width="1"/>
    <circle cx="40" cy="150" r="4" fill="#1c1917" stroke="#78350f" stroke-width="1"/>
    <circle cx="40" cy="180" r="4" fill="#1c1917" stroke="#78350f" stroke-width="1"/>
    <circle cx="40" cy="200" r="4" fill="#1c1917" stroke="#78350f" stroke-width="1"/>
    <circle cx="40" cy="220" r="4" fill="#1c1917" stroke="#78350f" stroke-width="1"/>
    <circle cx="40" cy="280" r="3" fill="#1c1917" stroke="#78350f" stroke-width="1"/>
  </g>
  
  <!-- Joint rings (decorative elements typical of wooden recorders) -->
  <g id="joints">
    <rect x="26" y="50" width="28" height="3" fill="#451a03"/>
    <rect x="26" y="167" width="28" height="3" fill="#451a03"/>
    <rect x="26" y="287" width="28" height="3" fill="#451a03"/>
  </g>
</svg>