<?xml version="1.0" encoding="UTF-8"?>
<svg viewBox="0 0 320 120" xmlns="http://www.w3.org/2000/svg">
  <defs>
    <!-- Brass gradient for trumpet -->
    <linearGradient id="trumpetGradient" x1="0%" y1="0%" x2="0%" y2="100%">
      <stop offset="0%" style="stop-color:#fbbf24;stop-opacity:1" />
      <stop offset="30%" style="stop-color:#f59e0b;stop-opacity:1" />
      <stop offset="70%" style="stop-color:#d97706;stop-opacity:1" />
      <stop offset="100%" style="stop-color:#b45309;stop-opacity:1" />
    </linearGradient>
    <!-- Silver gradient for valves -->
    <radialGradient id="valveGradient" cx="50%" cy="30%" r="60%">
      <stop offset="0%" style="stop-color:#f8fafc;stop-opacity:1" />
      <stop offset="70%" style="stop-color:#cbd5e1;stop-opacity:1" />
      <stop offset="100%" style="stop-color:#94a3b8;stop-opacity:1" />
    </radialGradient>
  </defs>
  
  <!-- Mouthpiece -->
  <ellipse cx="20" cy="60" rx="6" ry="8" fill="url(#valveGradient)" stroke="#64748b" stroke-width="1.5"/>
  
  <!-- Leadpipe -->
  <rect x="26" y="56" width="40" height="8" rx="4" fill="url(#trumpetGradient)" stroke="#b45309" stroke-width="1.5"/>
  
  <!-- Main tubing - first bend -->
  <path d="M 66 60 L 90 60 Q 110 60 110 40 L 110 30" stroke="url(#trumpetGradient)" stroke-width="10" fill="none" stroke-linecap="round"/>
  
  <!-- Valve section -->
  <rect x="85" y="20" width="50" height="20" rx="4" fill="url(#trumpetGradient)" stroke="#b45309" stroke-width="2"/>
  
  <!-- Individual valves -->
  <g id="valves">
    <!-- Valve 1 -->
    <rect x="90" y="15" width="10" height="30" rx="2" fill="url(#valveGradient)" stroke="#64748b" stroke-width="1"/>
    <circle cx="95" cy="10" r="4" fill="url(#valveGradient)" stroke="#64748b" stroke-width="1.5"/>
    
    <!-- Valve 2 -->
    <rect x="105" y="15" width="10" height="30" rx="2" fill="url(#valveGradient)" stroke="#64748b" stroke-width="1"/>
    <circle cx="110" cy="10" r="4" fill="url(#valveGradient)" stroke="#64748b" stroke-width="1.5"/>
    
    <!-- Valve 3 -->
    <rect x="120" y="15" width="10" height="30" rx="2" fill="url(#valveGradient)" stroke="#64748b" stroke-width="1"/>
    <circle cx="125" cy="10" r="4" fill="url(#valveGradient)" stroke="#64748b" stroke-width="1.5"/>
  </g>
  
  <!-- Tubing after valves -->
  <path d="M 135 30 L 150 30 Q 170 30 170 50 L 170 70 Q 170 90 190 90 L 220 90" stroke="url(#trumpetGradient)" stroke-width="8" fill="none" stroke-linecap="round"/>
  
  <!-- Bell -->
  <path d="M 220 90 Q 240 88 260 85 Q 280 80 290 70 Q 300 55 290 40 Q 280 50 260 55 Q 240 58 220 60 Q 210 65 220 75 Q 230 85 220 90 Z" fill="url(#trumpetGradient)" stroke="#b45309" stroke-width="2"/>
  
  <!-- Bell rim -->
  <ellipse cx="275" cy="62" rx="18" ry="12" fill="none" stroke="#b45309" stroke-width="2"/>
  
  <!-- Valve springs (detail) -->
  <g id="springs">
    <rect x="92" y="12" width="6" height="4" rx="1" fill="#94a3b8"/>
    <rect x="107" y="12" width="6" height="4" rx="1" fill="#94a3b8"/>
    <rect x="122" y="12" width="6" height="4" rx="1" fill="#94a3b8"/>
  </g>
</svg>